<svg width="42" height="42" viewBox="0 0 42 42" fill="none" xmlns="http://www.w3.org/2000/svg">
<path d="M0.862647 26.4273H22.6072C22.9321 26.4273 23.1981 26.1613 23.1981 25.8364V8.22211C23.1981 7.24307 22.4045 6.44946 21.4254 6.44946H2.04448C1.06544 6.44946 0.271833 7.24307 0.271833 8.22211V25.8363C0.271765 26.1613 0.537696 26.4273 0.862647 26.4273ZM5.2443 14.5577C5.2443 14.1527 5.57262 13.8243 5.97773 13.8243H11.7787V11.7574C11.7787 11.104 12.5688 10.7768 13.0308 11.239L18.0295 16.2401C18.3157 16.5264 18.3157 16.9907 18.0295 17.277L13.0308 22.2773C12.5688 22.7394 11.7787 22.4123 11.7787 21.7588V19.6914H5.97766C5.57262 19.6914 5.24424 19.363 5.24424 18.958V14.5577H5.2443ZM7.78784 31.1719H0.590882C0.265863 31.1719 0 30.9062 0 30.5811V28.7849C0 28.4599 0.265863 28.1939 0.590882 28.1939H9.41871C8.55599 28.9444 7.95921 29.9903 7.78784 31.1719ZM41.4091 28.194H39.9733V20.1638C39.9733 19.2244 39.6897 18.3026 39.1638 17.5226L35.5654 12.1928C34.6849 10.8929 33.2195 10.1129 31.6478 10.1129H26.0699C25.4139 10.1129 24.888 10.6447 24.888 11.2947V28.194H15.753C16.6216 28.9444 17.2184 29.9903 17.3897 31.1721H27.0211C27.3638 28.8263 29.3846 27.0122 31.825 27.0122C34.2654 27.0122 36.2802 28.8263 36.623 31.1721H41.4091C41.7341 31.1721 42 30.9062 42 30.5811V28.7849C42 28.4599 41.7341 28.194 41.4091 28.194ZM35.5239 18.5862H28.1616C27.8366 18.5862 27.5707 18.3261 27.5707 17.9953V13.9123C27.5707 13.5873 27.8366 13.3214 28.1616 13.3214H32.6464C32.8414 13.3214 33.0187 13.4159 33.1309 13.5696L36.0085 17.6585C36.2802 18.0485 36.0025 18.5862 35.5239 18.5862ZM12.5859 28.194C10.5592 28.194 8.91052 29.8425 8.91052 31.8752C8.91052 33.9019 10.5591 35.5504 12.5859 35.5504C14.6185 35.5504 16.2611 33.9019 16.2611 31.8752C16.2611 29.8426 14.6185 28.194 12.5859 28.194ZM12.5859 33.7129C11.5695 33.7129 10.7482 32.8856 10.7482 31.8752C10.7482 30.8588 11.5696 30.0376 12.5859 30.0376C13.6022 30.0376 14.4235 30.8589 14.4235 31.8752C14.4235 32.8856 13.6021 33.7129 12.5859 33.7129ZM31.825 28.194C29.7923 28.194 28.1496 29.8425 28.1496 31.8752C28.1496 33.9019 29.7923 35.5504 31.825 35.5504C33.8517 35.5504 35.5002 33.9019 35.5002 31.8752C35.5003 29.8426 33.8518 28.194 31.825 28.194ZM31.825 33.7129C30.8086 33.7129 29.9873 32.8856 29.9873 31.8752C29.9873 30.8588 30.8086 30.0376 31.825 30.0376C32.8413 30.0376 33.6626 30.8589 33.6626 31.8752C33.6627 32.8856 32.8413 33.7129 31.825 33.7129Z" fill="black"/>
</svg>
